<svg width="38" height="38" viewBox="0 0 38 38" fill="none" xmlns="http://www.w3.org/2000/svg">
<g clip-path="url(#clip0_378_313)">
<path d="M11.8299 5.12354H11.7893C10.8374 5.13076 9.90889 5.41989 9.12107 5.95443C8.33325 6.48896 7.72141 7.24495 7.36278 8.12696C7.00414 9.00897 6.91479 9.97748 7.106 10.9102C7.29721 11.843 7.7604 12.6982 8.43713 13.3679C8.88391 13.8145 9.41525 14.1675 10.0001 14.4063C10.5849 14.6451 11.2114 14.7649 11.8431 14.7586C12.479 14.7556 13.108 14.627 13.6941 14.3803C14.2802 14.1335 14.8118 13.7735 15.2585 13.3207C15.7053 12.8744 16.0587 12.3434 16.2977 11.7588C16.5368 11.1742 16.6569 10.5477 16.6508 9.91608C16.6394 8.64349 16.1269 7.42669 15.2244 6.52954C14.322 5.63239 13.1023 5.12721 11.8299 5.12354ZM11.8478 13.8063H11.8214C10.7963 13.8063 9.81324 13.399 9.0884 12.6741C8.36356 11.9491 7.95636 10.9659 7.95636 9.9406C7.95636 8.91535 8.36356 7.93208 9.0884 7.20712C9.81324 6.48216 10.7963 6.07488 11.8214 6.07488H11.8261C12.8554 6.08638 13.8383 6.50504 14.5599 7.23931C14.9198 7.5951 15.2053 8.01907 15.3995 8.48644C15.5937 8.95381 15.6929 9.45521 15.6912 9.96134C15.6782 10.9769 15.2692 11.9472 14.5512 12.6655C13.8333 13.3838 12.8632 13.7931 11.8478 13.8063Z" fill="black" stroke="black" stroke-width="0.5" stroke-miterlimit="10"/>
<path d="M37.7521 12.2619C37.7521 9.66713 37.7521 7.07238 37.7521 4.47763C37.7528 4.20498 37.733 3.93267 37.6927 3.66301C37.4391 2.00735 35.747 0.235718 33.6306 0.235718C25.5385 0.243261 17.3117 0.241375 9.35532 0.235718H4.34019C3.26363 0.235718 2.33885 0.619461 1.51211 1.40863C0.74381 2.14218 0.327139 2.97566 0.238525 3.95435V34.0777C0.306443 34.7788 0.567512 35.4472 0.992681 36.0087C1.77983 37.0553 2.73949 37.6295 3.92729 37.7643H33.8522C34.0162 37.7322 34.1736 37.7181 34.3235 37.703C34.5066 37.6928 34.6879 37.6612 34.8637 37.6087C36.2636 37.1156 37.7672 35.6287 37.7625 33.5412C37.7455 26.45 37.7455 19.2371 37.7521 12.2619ZM1.37447 25.8937V25.8749C1.37447 18.3923 1.37447 11.5246 1.37447 4.87741C1.37447 3.84026 1.72327 2.9766 2.32942 2.37035C2.93557 1.76409 3.80097 1.41523 4.8351 1.41523C14.262 1.41523 23.689 1.41523 33.1159 1.41523C35.1899 1.41523 36.5803 2.80406 36.5813 4.87175C36.5813 8.7645 36.5813 12.6582 36.5813 16.5528V22.4193L33.3761 18.48C32.3536 17.2229 31.332 15.9657 30.3114 14.7086C29.7647 14.0335 29.0982 13.6573 28.3864 13.6196C27.6747 13.5819 26.9828 13.8855 26.3738 14.4936C22.6794 18.1896 19.5996 21.2718 16.417 24.4785C15.9777 24.9216 15.5092 24.9367 15.0256 24.5256C14.0961 23.7346 13.1402 22.9435 12.2098 22.1779L11.6442 21.7065C10.4743 20.741 9.29593 20.7504 8.14207 21.7329L5.28665 24.1626L2.57264 26.4726C2.51419 26.5217 2.45763 26.5669 2.39918 26.615L1.97874 26.9563L1.61863 26.6244C1.52068 26.5323 1.44709 26.4174 1.40448 26.2898C1.36187 26.1623 1.35156 26.0262 1.37447 25.8937ZM36.5794 28.9674C36.5794 30.3811 36.5794 31.7954 36.5794 33.2103C36.5794 35.2516 35.1983 36.6244 33.1508 36.6253H27.1176H14.872C11.5147 36.6253 8.1581 36.6253 4.80211 36.6253C3.15051 36.6253 1.91463 35.723 1.49608 34.2154C1.40926 33.8866 1.36803 33.5475 1.37353 33.2075V32.5871C1.37353 31.5923 1.37353 30.5637 1.37353 29.5529C1.36509 29.3789 1.39773 29.2054 1.4688 29.0463C1.53988 28.8873 1.6474 28.7472 1.78266 28.6374C3.36638 27.2967 4.97368 25.9286 6.52912 24.6048L8.87172 22.6079C9.62022 21.9705 10.183 21.9695 10.9456 22.6079C12.3842 23.8021 13.824 24.9964 15.2651 26.1907C15.7242 26.5679 15.925 26.5594 16.3511 26.1341C19.949 22.5349 23.5454 18.9342 27.1402 15.3318L27.1939 15.2781C27.3627 15.1055 27.5927 14.8698 27.9641 14.7897C28.5005 14.6728 28.9728 14.8613 29.3668 15.3497C30.6388 16.9212 31.9118 18.4901 33.1857 20.0565L34.9353 22.2128C35.3727 22.753 35.8252 23.3112 36.2758 23.8543C36.4814 24.0984 36.5904 24.4093 36.5822 24.7283C36.5797 26.1401 36.5788 27.5531 36.5794 28.9674Z" fill="black" stroke="black" stroke-width="0.5" stroke-miterlimit="10"/>
</g>
<defs>
<clipPath id="clip0_378_313">
<rect width="38" height="38" fill="white"/>
</clipPath>
</defs>
</svg>
