<svg width="39" height="37" viewBox="0 0 39 37" fill="none" xmlns="http://www.w3.org/2000/svg">
<g clip-path="url(#clip0_171_557)">
<path d="M30.8296 14.7006C30.6739 14.701 30.5196 14.6708 30.3756 14.6117C30.2317 14.5527 30.1009 14.466 29.9907 14.3566C29.8806 14.2473 29.7933 14.1174 29.7339 13.9744C29.6744 13.8314 29.644 13.6782 29.6443 13.5235V9.42988H9.16322V13.5235C9.16322 13.8357 9.03836 14.1351 8.81608 14.3559C8.5938 14.5766 8.29232 14.7006 7.97797 14.7006C7.66363 14.7006 7.36215 14.5766 7.13987 14.3559C6.91759 14.1351 6.79272 13.8357 6.79272 13.5235V8.25278C6.79272 7.9406 6.91759 7.64119 7.13987 7.42044C7.36215 7.19969 7.66363 7.07569 7.97797 7.07569H30.8296C30.9853 7.07534 31.1396 7.10555 31.2836 7.16458C31.4275 7.22361 31.5583 7.3103 31.6685 7.41968C31.7786 7.52905 31.8659 7.65895 31.9253 7.80192C31.9848 7.94489 32.0152 8.09811 32.0148 8.25278V13.5235C32.0152 13.6782 31.9848 13.8314 31.9253 13.9744C31.8659 14.1174 31.7786 14.2473 31.6685 14.3566C31.5583 14.466 31.4275 14.5527 31.2836 14.6117C31.1396 14.6708 30.9853 14.701 30.8296 14.7006Z" fill="black" stroke="black" stroke-width="0.5"/>
<path d="M19.4038 32.5139C19.2482 32.5136 19.0941 32.4828 18.9504 32.4233C18.8068 32.3639 18.6763 32.2769 18.5665 32.1673C18.4567 32.0578 18.3696 31.9278 18.3104 31.7849C18.2511 31.6419 18.2208 31.4888 18.2212 31.3342L18.2554 8.57706C18.2561 8.26533 18.3813 7.9666 18.6035 7.74642C18.8257 7.52624 19.1268 7.40259 19.4407 7.40259C19.5963 7.40293 19.7504 7.43372 19.8941 7.49319C20.0377 7.55266 20.1682 7.63965 20.278 7.7492C20.3878 7.85874 20.4748 7.9887 20.5341 8.13165C20.5933 8.27459 20.6236 8.42772 20.6233 8.5823L20.5891 31.3395C20.5884 31.6512 20.4632 31.9499 20.241 32.1701C20.0188 32.3903 19.7177 32.5139 19.4038 32.5139Z" fill="black" stroke="black" stroke-width="0.5"/>
<path d="M21.677 33.0109H16.936C16.6216 33.0109 16.3202 32.8869 16.0979 32.6662C15.8756 32.4454 15.7507 32.146 15.7507 31.8338C15.7507 31.5216 15.8756 31.2223 16.0979 31.0015C16.3202 30.7808 16.6216 30.6567 16.936 30.6567H21.677C21.9913 30.6567 22.2928 30.7808 22.5151 31.0015C22.7374 31.2223 22.8622 31.5216 22.8622 31.8338C22.8622 32.146 22.7374 32.4454 22.5151 32.6662C22.2928 32.8869 21.9913 33.0109 21.677 33.0109Z" fill="black" stroke="black" stroke-width="0.5"/>
<path d="M1.18525 8.7105C0.870902 8.7105 0.569422 8.58648 0.347145 8.36573C0.124867 8.14498 0 7.84559 0 7.53341V1.17709C0 0.86491 0.124867 0.565512 0.347145 0.344764C0.569422 0.124016 0.870902 0 1.18525 0H8.13872C8.45307 0 8.75455 0.124016 8.97683 0.344764C9.19911 0.565512 9.32397 0.86491 9.32397 1.17709C9.32397 1.48928 9.19911 1.78868 8.97683 2.00942C8.75455 2.23017 8.45307 2.35419 8.13872 2.35419H2.3705V7.53341C2.37085 7.68808 2.34043 7.8413 2.28099 7.98427C2.22155 8.12724 2.13426 8.25713 2.02413 8.3665C1.914 8.47587 1.78319 8.56258 1.63924 8.62161C1.49528 8.68064 1.341 8.71085 1.18525 8.7105Z" fill="black" stroke="black" stroke-width="0.5"/>
<path d="M37.7833 8.7105C37.6275 8.71085 37.4732 8.68064 37.3293 8.62161C37.1853 8.56258 37.0545 8.47587 36.9444 8.3665C36.8342 8.25713 36.747 8.12724 36.6875 7.98427C36.6281 7.8413 36.5977 7.68808 36.598 7.53341V2.35419H30.8298C30.5154 2.35419 30.214 2.23017 29.9917 2.00942C29.7694 1.78868 29.6445 1.48928 29.6445 1.17709C29.6445 0.86491 29.7694 0.565512 29.9917 0.344764C30.214 0.124016 30.5154 0 30.8298 0H37.7833C38.0976 0 38.3991 0.124016 38.6213 0.344764C38.8436 0.565512 38.9685 0.86491 38.9685 1.17709V7.53341C38.9685 7.84559 38.8436 8.14498 38.6213 8.36573C38.3991 8.58648 38.0976 8.7105 37.7833 8.7105Z" fill="black" stroke="black" stroke-width="0.5"/>
<path d="M37.8148 36.9895H30.8535C30.5391 36.9895 30.2376 36.8655 30.0154 36.6448C29.7931 36.424 29.6682 36.1246 29.6682 35.8125C29.6682 35.5003 29.7931 35.2009 30.0154 34.9801C30.2376 34.7594 30.5391 34.6354 30.8535 34.6354H36.6191V29.4561C36.6191 29.144 36.7439 28.8446 36.9662 28.6238C37.1885 28.4031 37.49 28.2791 37.8043 28.2791C38.1186 28.2791 38.4201 28.4031 38.6424 28.6238C38.8647 28.8446 38.9896 29.144 38.9896 29.4561V35.8125C38.9903 36.123 38.8671 36.4213 38.6469 36.6419C38.4268 36.8625 38.1276 36.9875 37.8148 36.9895Z" fill="black" stroke="black" stroke-width="0.5"/>
<path d="M8.17027 36.9895H1.21943C1.06369 36.9899 0.909405 36.9597 0.765447 36.9007C0.621489 36.8416 0.490686 36.7549 0.380556 36.6456C0.270426 36.5362 0.183135 36.4063 0.123694 36.2633C0.0642523 36.1203 0.0338354 35.9671 0.0341826 35.8125V29.4561C0.0341826 29.144 0.15905 28.8446 0.381327 28.6238C0.603605 28.4031 0.905085 28.2791 1.21943 28.2791C1.53378 28.2791 1.83526 28.4031 2.05754 28.6238C2.27982 28.8446 2.40468 29.144 2.40468 29.4561V34.6354H8.17027C8.48462 34.6354 8.7861 34.7594 9.00838 34.9801C9.23065 35.2009 9.35552 35.5003 9.35552 35.8125C9.35552 36.1246 9.23065 36.424 9.00838 36.6448C8.7861 36.8655 8.48462 36.9895 8.17027 36.9895Z" fill="black" stroke="black" stroke-width="0.5"/>
</g>
<defs>
<clipPath id="clip0_171_557">
<rect width="39" height="37" fill="white"/>
</clipPath>
</defs>
</svg>
